<svg version="1.2" xmlns="http://www.w3.org/2000/svg" viewBox="0 0 680 253" width="680" height="253">
	<title>New Project</title>
	<style>
		.s0 { fill: #000000 } 
		.s1 { fill: #ffffff } 
	</style>
	<path id="t" class="s0" aria-label="t"  d="m211.2-37.9h2.2v3.8h4.4v1.7h-4.4v7.1q0 1.6 0.4 2 0.5 0.5 1.8 0.5h2.2v1.8h-2.2q-2.5 0-3.4-0.9-1-1-1-3.4v-7.1h-1.6v-1.7h1.6z"/>
	<path id="Kafe" class="s1" aria-label="Kafe"  d="m166.4 240q-33.7 0-40.4-24.8-14.7-50.2-38.1-72.4v51.9q0 7.9 3.4 12.3 3.6 4.5 7.6 7.7 4.1 3.3 6.8 6.7 2.7 3.2 2.7 8.5 0 4.1-3.9 7.2-3.8 2.9-10.4 2.9h-63.3q-6.6 0-10.5-2.9-3.8-3.1-3.8-7.2 0-5.3 2.7-8.5 2.8-3.4 6.7-6.7 4.1-3.2 7.5-7.7 3.6-4.4 3.6-12.3v-77.6q0-7.2-0.9-13.3-0.6-6.2-3.9-12.3-3.2-6.2-10.2-13.3-5.7-6-5.7-10.8 0-8.4 13.7-14.5 9.2-4.1 19.5-6.5 14.7-3.4 20.8-3.4 7.2 0 12.3 4.6 5.3 4.6 5.3 20.1v54.4q18-1.9 29.6-11.3 11.6-9.4 18.1-22.6 6.7-13.3 9.6-27 1.5-7 6.3-11.2 5-4.5 13.3-4.5 10.3 0 15.6 8.2 3.2 5.3 3.2 11.6 0 3.6-1 7.6-4.9 16.2-19.1 30.7-14.2 14.4-33.9 23.3 11.5 4.1 18.7 14.3 7.1 10.3 13.1 23.3 5.1 10.7 11.6 21.3 6.7 10.6 16.6 19 12.7 10.4 12.7 17.9 0 8.9-10 13.2-9.7 4.1-25.9 4.1zm90.1 0.2q-16.4 0-27.2-5.2-10.6-5.1-15.8-13.3-5.2-8.2-5.2-17.8 0-14 10.4-26.1 10.6-12.3 31.3-19.5 15.2-4.4 27.7-9.2 9.7-3.6 18.1-9.4-0.1-9.8-1.2-16.1-2.2-13.8-11.3-13.8-10.9 0-22 22-9.6 18.1-23.8 18.1-7.5 0-12.9-5.3-5.5-5.4-5.5-14.7 0-17.9 28-29 23.1-9.1 47-9.1 29.8 0 42.6 19 10.1 14.9 10.1 45.8 0 16.6 0.1 17.9 0 8.2 1.9 16.5 2.1 8.2 9.1 12.9 7 4.8 7 10.6 0 2.3-2.8 7.6-2.5 5.3-14.8 11.6-12.3 6.3-26.4 6.3-7.3 0-14.7-3.8-7.3-3.9-9.7-11.9-15.5 15.9-40 15.9zm18.1-22.9q5.3 0 10.1-3.4 11.1-7.9 11.1-26.7v-27.7q-10.6 6.8-20.7 10.9-10 4.1-15 11.5-4.8 7.2-4.8 14.9 0 8.3 5 14.5 5.1 6 14.3 6zm170.7 22.7h-63.2q-6.6 0-10.6-2.9-3.7-3.1-3.7-7.2 0-5.3 2.7-8.5 2.9-3.4 6.5-6.5 4.3-3.4 7.8-7.9 3.6-4.4 3.6-12.3v-86.8q0-34.4 22.4-53.3 19.9-16.8 48.2-16.8 20.7 0 33.3 6.5 12.9 6.5 18.5 16.1 5.1 8.5 5.1 17.2 0 9.8-6.5 16.6-6.3 6.7-17.1 6.7-15.5-0.4-22.3-21.5-7.6-24.8-18.3-24.8-12.5 0-12.5 50v31.8q8.4-11.1 18.5-16.4 10-5.4 18.9-5.4 8.4 0 12.2 4.7 3.7 4.7 3.7 10.3 0 8-4.8 12.5-4.6 4.4-13.1 4.4-34.6 0-35.4 38.5v9.7q0 7.9 3.4 12.3 3.6 4.5 7.5 7.7 4.1 3.3 6.9 6.7 2.7 3.2 2.7 8.5 0 4.1-3.9 7.2-3.8 2.9-10.5 2.9zm143 1.5q-49.4 0-73.5-30-16.2-20-16.2-45.7 0-30 22.7-53.1 22.9-23.3 63.3-23.3 19.8 0 32.6 6.7 12.8 6.7 19.2 17.1 6.3 10.4 6.3 22.7 0 11.5-6 21.7-5.8 10.3-17.4 16.9-11.7 6.7-28.7 6.7-24 0-38-12.1 0 14.3 3.9 26.8 4.2 12.5 13.2 20.2 9.1 7.7 24.4 7.7 23.5 0 35.4-33 1.7-5.1 5.1-9.4 3.5-4.5 10.5-4.5 9.9 0 15.7 6.7 5.1 6.2 5.1 14.7 0 17.1-19.5 30.2-19.3 13-58.1 13zm-12.8-85.6q9.1 0 14.7-5.1 9.2-8.4 9.2-21.7 0-2.9-0.8-8-0.9-5.2-5.6-10.3-4.8-5.1-13.2-5.1-9.1 0-15.4 6.5-6.1 6.3-9.7 16-3.4 9.8-4.3 20.4 12.3 7.3 25.1 7.3z"/>
	<path id="'" class="s1" aria-label="'"  d="m611 10.7q11.9 0 11.9 11.9v1.8q-1.1 9.8-20.7 30.4-19.2 20.7-27.3 20.7-1.8 0-1.8-6 0-6.3 4.6-19.9 4.5-14 4.5-14.7 7.4-24.2 28.8-24.2z"/>
</svg>